<svg width="29" height="29" viewBox="0 0 29 29" fill="none" xmlns="http://www.w3.org/2000/svg">
<path d="M14.5 29C22.5081 29 29 22.5081 29 14.5C29 6.49187 22.5081 0 14.5 0C6.49187 0 0 6.49187 0 14.5C0 22.5081 6.49187 29 14.5 29Z" fill="#FF4858" fill-opacity="0.15"/>
<g filter="url(#filter0_d_1_116)">
<path d="M14.5 20C17.5376 20 20 17.5376 20 14.5C20 11.4624 17.5376 9 14.5 9C11.4624 9 9 11.4624 9 14.5C9 17.5376 11.4624 20 14.5 20Z" fill="url(#paint0_linear_1_116)"/>
<path d="M14.5 20C17.5376 20 20 17.5376 20 14.5C20 11.4624 17.5376 9 14.5 9C11.4624 9 9 11.4624 9 14.5C9 17.5376 11.4624 20 14.5 20Z" fill="url(#paint1_linear_1_116)"/>
</g>
<defs>
<filter id="filter0_d_1_116" x="4" y="4" width="21" height="21" filterUnits="userSpaceOnUse" color-interpolation-filters="sRGB">
<feFlood flood-opacity="0" result="BackgroundImageFix"/>
<feColorMatrix in="SourceAlpha" type="matrix" values="0 0 0 0 0 0 0 0 0 0 0 0 0 0 0 0 0 0 127 0" result="hardAlpha"/>
<feOffset/>
<feGaussianBlur stdDeviation="2.5"/>
<feColorMatrix type="matrix" values="0 0 0 0 1 0 0 0 0 0.282353 0 0 0 0 0.345098 0 0 0 0.3 0"/>
<feBlend mode="normal" in2="BackgroundImageFix" result="effect1_dropShadow_1_116"/>
<feBlend mode="normal" in="SourceGraphic" in2="effect1_dropShadow_1_116" result="shape"/>
</filter>
<linearGradient id="paint0_linear_1_116" x1="9" y1="20" x2="20" y2="20" gradientUnits="userSpaceOnUse">
<stop stop-color="#9448FF"/>
<stop offset="1" stop-color="#5D85FF"/>
</linearGradient>
<linearGradient id="paint1_linear_1_116" x1="9.17163" y1="9" x2="9.17163" y2="19.6567" gradientUnits="userSpaceOnUse">
<stop stop-color="#FF727E"/>
<stop offset="1" stop-color="#FF4858"/>
</linearGradient>
</defs>
</svg>
