<svg width="36" height="36" viewBox="0 0 36 36" fill="none" xmlns="http://www.w3.org/2000/svg">
<g filter="url(#filter0_d_1_108)">
<path d="M18 30C24.6274 30 30 24.6274 30 18C30 11.3726 24.6274 6 18 6C11.3726 6 6 11.3726 6 18C6 24.6274 11.3726 30 18 30Z" fill="url(#paint0_linear_1_108)"/>
<path d="M18 30C24.6274 30 30 24.6274 30 18C30 11.3726 24.6274 6 18 6C11.3726 6 6 11.3726 6 18C6 24.6274 11.3726 30 18 30Z" fill="#FF4858"/>
</g>
<path d="M17.5 25L16 20L11 18.5L23 13L17.5 25Z" fill="url(#paint1_linear_1_108)"/>
<path d="M17.5 25L16 20L11 18.5L23 13L17.5 25Z" fill="white"/>
<defs>
<filter id="filter0_d_1_108" x="0" y="0" width="36" height="36" filterUnits="userSpaceOnUse" color-interpolation-filters="sRGB">
<feFlood flood-opacity="0" result="BackgroundImageFix"/>
<feColorMatrix in="SourceAlpha" type="matrix" values="0 0 0 0 0 0 0 0 0 0 0 0 0 0 0 0 0 0 127 0" result="hardAlpha"/>
<feOffset/>
<feGaussianBlur stdDeviation="3"/>
<feColorMatrix type="matrix" values="0 0 0 0 0.984314 0 0 0 0 0.278431 0 0 0 0 0.305882 0 0 0 0.3 0"/>
<feBlend mode="normal" in2="BackgroundImageFix" result="effect1_dropShadow_1_108"/>
<feBlend mode="normal" in="SourceGraphic" in2="effect1_dropShadow_1_108" result="shape"/>
</filter>
<linearGradient id="paint0_linear_1_108" x1="6" y1="30" x2="30" y2="30" gradientUnits="userSpaceOnUse">
<stop stop-color="#9448FF"/>
<stop offset="1" stop-color="#5D85FF"/>
</linearGradient>
<linearGradient id="paint1_linear_1_108" x1="11" y1="25" x2="23" y2="25" gradientUnits="userSpaceOnUse">
<stop stop-color="#9448FF"/>
<stop offset="1" stop-color="#5D85FF"/>
</linearGradient>
</defs>
</svg>
