<svg width="21" height="21" viewBox="0 0 21 21" fill="none" xmlns="http://www.w3.org/2000/svg">
<path fill-rule="evenodd" clip-rule="evenodd" d="M1.8015 1.80151C4.20352 -0.600505 8.09797 -0.600505 10.5 1.80151L19.1985 10.5C21.6005 12.902 21.6005 16.7965 19.1985 19.1985C16.7964 21.6005 12.902 21.6005 10.5 19.1985L1.8015 10.5C-0.600514 8.09798 -0.600514 4.20353 1.8015 1.80151ZM3.25125 3.25126C1.64991 4.85261 1.64991 7.4489 3.25125 9.05025L6.94271 12.7417L6.93395 12.7507L8.38369 14.2005L8.39246 14.1915L11.9497 17.7487C13.5511 19.3501 16.1474 19.3501 17.7487 17.7487C19.3501 16.1474 19.3501 13.5511 17.7487 11.9497L14.1103 8.31133L14.1138 8.30774L12.6641 6.858L12.6606 6.86158L9.05024 3.25126C7.44889 1.64992 4.8526 1.64992 3.25125 3.25126ZM12.6606 6.86158L6.94271 12.7417L8.39246 14.1915L14.1103 8.31133L12.6606 6.86158Z" fill="#FF4858"/>
</svg>
