<svg width="18" height="15" viewBox="0 0 18 15" fill="none" xmlns="http://www.w3.org/2000/svg">
<path d="M13.8461 13.6288C13.8461 14.0052 13.9817 14.3262 14.2519 14.5922C14.5221 14.8584 14.8486 14.9917 15.2311 14.9917C15.6131 14.9917 15.9395 14.8584 16.2098 14.5922C16.4802 14.3262 16.6156 14.0052 16.6156 13.6288C16.6156 13.2524 16.4804 12.9313 16.2098 12.6651C15.9395 12.3991 15.6131 12.2659 15.2311 12.2659C14.8486 12.2659 14.5221 12.3991 14.2519 12.6651C13.9817 12.9313 13.8461 13.2524 13.8461 13.6288Z" fill="#FF4858"/>
<path d="M17.7944 1.56506C17.6574 1.43017 17.4952 1.36271 17.3077 1.36271H4.31614C4.30882 1.31307 4.29261 1.22264 4.26737 1.09133C4.24214 0.959951 4.22236 0.855307 4.20793 0.777142C4.19342 0.699312 4.16652 0.605185 4.12677 0.495172C4.0871 0.385084 4.04024 0.298043 3.98617 0.23431C3.93218 0.170241 3.86008 0.115384 3.7699 0.0691033C3.67981 0.0231215 3.57698 0 3.46165 0H0.692443C0.504821 0 0.342584 0.0675743 0.205581 0.202275C0.0685396 0.337126 0 0.496925 0 0.681449C0 0.865973 0.0685396 1.0257 0.205581 1.16055C0.342698 1.29544 0.504973 1.36282 0.692443 1.36282H2.89893L4.81349 10.1257C4.79917 10.154 4.72525 10.2888 4.59177 10.5303C4.45837 10.7717 4.35202 10.9828 4.27275 11.1638C4.19346 11.345 4.15379 11.4851 4.15379 11.5844C4.15379 11.7689 4.22233 11.9287 4.35929 12.0638C4.49648 12.1982 4.65868 12.2659 4.84619 12.2659H5.53848H15.2308H15.9227C16.1102 12.2659 16.2725 12.1983 16.4094 12.0638C16.5466 11.9287 16.6151 11.769 16.6151 11.5844C16.6151 11.3998 16.5466 11.2401 16.4094 11.1053C16.2725 10.9705 16.1102 10.9029 15.9227 10.9029H5.97101C6.14416 10.5621 6.2307 10.3352 6.2307 10.2216C6.2307 10.1504 6.22168 10.0723 6.20361 9.98731C6.18553 9.90232 6.16394 9.80812 6.13871 9.70504C6.11343 9.60242 6.09729 9.52608 6.09009 9.47633L17.3837 8.17739C17.5637 8.15594 17.7117 8.0799 17.8271 7.94841C17.9425 7.81721 18 7.6664 18 7.49594V2.04438C18 1.85986 17.9316 1.70014 17.7944 1.56506Z" fill="#FF4858"/>
<path d="M4.15375 13.6288C4.15375 14.0052 4.2889 14.3262 4.55938 14.5922C4.82994 14.8584 5.15612 14.9917 5.53845 14.9917C5.92055 14.9917 6.24692 14.8584 6.51729 14.5922C6.78777 14.3262 6.92307 14.0052 6.92307 13.6288C6.92307 13.2524 6.78788 12.9313 6.51729 12.6651C6.24688 12.3991 5.92055 12.2659 5.53845 12.2659C5.15616 12.2659 4.82979 12.3991 4.55938 12.6651C4.28905 12.9313 4.15375 13.2524 4.15375 13.6288Z" fill="#FF4858"/>
</svg>
