<svg width="18" height="18" viewBox="0 0 18 18" fill="none" xmlns="http://www.w3.org/2000/svg">
<path fill-rule="evenodd" clip-rule="evenodd" d="M4.07956 0C4.64545 0 8.05012 4.17654 8.05012 4.17654C8.31715 4.52628 8.06331 5.02987 7.61665 5.02987H5.5822V17.4665C5.5822 17.7614 5.34704 18 5.04749 18H3.10925C2.8097 18 2.56732 17.7614 2.56732 17.4665V5.02987H0.5425C0.0962378 5.02987 -0.158253 4.52664 0.109063 4.17654C0.109063 4.17654 3.51367 0 4.07956 0ZM13.184 18C13.7499 18 17.1546 13.8235 17.1546 13.8235C17.4216 13.4737 17.1678 12.9701 16.7211 12.9701H14.6866V0.533464C14.6866 0.238601 14.4515 0 14.1519 0H12.2137C11.9142 0 11.6718 0.238601 11.6718 0.533464V12.9701H9.64695C9.20068 12.9701 8.94619 13.4734 9.21351 13.8235C9.21351 13.8235 12.6181 18 13.184 18Z" fill="#D1D2DB"/>
</svg>
